<svg width="24" height="24" viewBox="0 0 24 24" fill="none" xmlns="http://www.w3.org/2000/svg">
<g id="google_icon-icons.com_62736 1" clip-path="url(#clip0_1240_43)">
<g id="Group">
<path id="Vector" d="M1.98779 6.83905C2.71436 5.32499 3.74092 4.0453 5.03467 2.98124C6.78779 1.5328 8.79873 0.660923 11.0534 0.393736C13.7019 0.0796731 16.1909 0.581236 18.4925 1.95936C19.0644 2.30155 19.5987 2.69061 20.1097 3.11249C20.2362 3.21561 20.2222 3.27655 20.1144 3.37967C19.069 4.4203 18.0237 5.46092 16.9878 6.51092C16.8659 6.6328 16.8003 6.62342 16.669 6.52499C13.6315 4.18592 9.20186 4.81874 6.93779 7.91249C6.53936 8.45624 6.21592 9.04217 5.99092 9.67967C5.97217 9.73592 5.93467 9.78749 5.90654 9.84374C5.30186 9.38436 4.69248 8.92499 4.09248 8.46092C3.38936 7.92186 2.68623 7.3828 1.98779 6.83905Z" fill="#E94335"/>
<path id="Vector_2" d="M5.90635 14.2407C6.10791 14.686 6.27666 15.1501 6.52979 15.5673C7.59385 17.311 9.1126 18.4313 11.1142 18.8298C12.9188 19.1907 14.6532 18.947 16.2704 18.0423C16.3267 18.0142 16.3829 17.986 16.4345 17.9579C16.4626 17.986 16.486 18.0188 16.5142 18.0423C17.7235 18.9798 18.9376 19.9173 20.147 20.8548C19.5657 21.4313 18.9048 21.8954 18.2017 22.2985C16.1626 23.461 13.9548 23.9298 11.6298 23.7517C8.73291 23.5267 6.23447 22.3829 4.17197 20.3204C3.26729 19.4157 2.52197 18.3938 1.98291 17.2267C2.48447 16.8423 2.98604 16.4626 3.4876 16.0782C4.29385 15.4642 5.1001 14.8548 5.90635 14.2407Z" fill="#34A853"/>
<path id="Vector_3" d="M20.1517 20.8547C18.9423 19.9172 17.7282 18.9797 16.5189 18.0422C16.4907 18.0188 16.4626 17.9859 16.4392 17.9578C16.8564 17.6344 17.2829 17.3203 17.6251 16.9078C18.197 16.2234 18.5767 15.45 18.7736 14.5828C18.797 14.475 18.7782 14.4375 18.6704 14.4422C18.6142 14.4469 18.5626 14.4422 18.5064 14.4422C16.5939 14.4422 14.6767 14.4375 12.7642 14.4469C12.5532 14.4469 12.5064 14.3906 12.5111 14.1891C12.5204 12.8297 12.5204 11.4703 12.5111 10.1109C12.5111 9.9375 12.5579 9.89062 12.7314 9.89062C16.2376 9.89531 19.7439 9.89531 23.2548 9.89062C23.4048 9.89062 23.4657 9.92812 23.5032 10.0875C23.7892 11.3766 23.7704 12.6703 23.597 13.9734C23.4564 15.0141 23.2032 16.0219 22.8142 16.9969C22.2376 18.4359 21.3892 19.6922 20.2736 20.7703C20.2314 20.8031 20.1892 20.8266 20.1517 20.8547Z" fill="#4285F3"/>
<path id="Vector_4" d="M5.90634 14.2406C5.10009 14.8547 4.29384 15.4641 3.48759 16.0781C2.98602 16.4578 2.48446 16.8422 1.9829 17.2266C1.59384 16.5047 1.34071 15.7406 1.13446 14.9531C0.740711 13.4297 0.679773 11.8828 0.895398 10.3312C1.06415 9.1125 1.41571 7.94062 1.9829 6.84375C2.68602 7.38281 3.38446 7.92656 4.08759 8.46563C4.69227 8.92969 5.29696 9.38906 5.90165 9.84844C5.79852 10.35 5.65321 10.8422 5.60634 11.3578C5.52196 12.2953 5.61102 13.2094 5.87821 14.1094C5.89696 14.1469 5.90165 14.1937 5.90634 14.2406Z" fill="#FABB06"/>
</g>
</g>
<defs>
<clipPath id="clip0_1240_43">
<rect width="24" height="24" fill="white"/>
</clipPath>
</defs>
</svg>
