<svg width="24" height="24" viewBox="0 0 24 24" fill="none" xmlns="http://www.w3.org/2000/svg">
<g id="fi-rs-eye">
<g id="01 align center">
<path id="Vector" d="M21.8512 11.363C21.1195 9.86967 18.2503 5 12.0001 5C5.74999 5 2.88075 9.86967 2.14906 11.363C2.05084 11.5631 2 11.7807 2 12.0008C2 12.2209 2.05084 12.4384 2.14906 12.6386C2.88075 14.1303 5.74999 19 12.0001 19C18.2503 19 21.1195 14.1303 21.8512 12.637C21.9493 12.4371 22 12.2198 22 12C22 11.7802 21.9493 11.5629 21.8512 11.363ZM12.0001 17.4444C6.74418 17.4444 4.29162 13.2709 3.6666 12.0086C4.29162 10.7291 6.74418 6.55556 12.0001 6.55556C17.2436 6.55556 19.697 10.7112 20.3337 12C19.697 13.2888 17.2436 17.4444 12.0001 17.4444Z" fill="#666666"/>
<path id="Vector_2" d="M12.0003 8.11133C11.1762 8.11133 10.3706 8.33941 9.68534 8.76672C9.00011 9.19404 8.46605 9.8014 8.15067 10.512C7.8353 11.2226 7.75279 12.0045 7.91356 12.7589C8.07434 13.5133 8.47118 14.2062 9.05392 14.7501C9.63665 15.2939 10.3791 15.6643 11.1874 15.8144C11.9956 15.9644 12.8334 15.8874 13.5948 15.5931C14.3562 15.2987 15.007 14.8003 15.4648 14.1608C15.9227 13.5212 16.167 12.7694 16.167 12.0002C16.1657 10.9692 15.7263 9.98076 14.9452 9.25172C14.164 8.52268 13.105 8.11256 12.0003 8.11133ZM12.0003 14.3336C11.5058 14.3336 11.0224 14.1967 10.6113 13.9403C10.2002 13.6839 9.87974 13.3195 9.69051 12.8931C9.50129 12.4668 9.45178 11.9976 9.54825 11.545C9.64471 11.0924 9.88282 10.6766 10.2325 10.3503C10.5821 10.024 11.0276 9.80175 11.5125 9.71172C11.9975 9.62169 12.5002 9.66789 12.957 9.8445C13.4138 10.0211 13.8043 10.3202 14.079 10.7039C14.3537 11.0876 14.5003 11.5387 14.5003 12.0002C14.5003 12.6191 14.2369 13.2125 13.7681 13.6501C13.2992 14.0877 12.6633 14.3336 12.0003 14.3336Z" fill="#666666"/>
<path id="Vector 21" d="M4 19L20 5" stroke="#666666" stroke-width="1.5"/>
</g>
</g>
</svg>
