<svg width="24" height="24" viewBox="0 0 24 24" fill="none" xmlns="http://www.w3.org/2000/svg">
<path d="M21.8512 11.363C21.1195 9.86967 18.2503 5 12.0001 5C5.74999 5 2.88075 9.86967 2.14906 11.363C2.05084 11.5631 2 11.7807 2 12.0008C2 12.2209 2.05084 12.4384 2.14906 12.6386C2.88075 14.1303 5.74999 19 12.0001 19C18.2503 19 21.1195 14.1303 21.8512 12.637C21.9493 12.4371 22 12.2198 22 12C22 11.7802 21.9493 11.5629 21.8512 11.363ZM12.0001 17.4444C6.74418 17.4444 4.29162 13.2709 3.6666 12.0086C4.29162 10.7291 6.74418 6.55556 12.0001 6.55556C17.2436 6.55556 19.697 10.7112 20.3337 12C19.697 13.2888 17.2436 17.4444 12.0001 17.4444Z" fill="#666666"/>
<path d="M11.9998 8.11133C11.1757 8.11133 10.3701 8.33941 9.68485 8.76672C8.99963 9.19404 8.46556 9.8014 8.15019 10.512C7.83481 11.2226 7.7523 12.0045 7.91307 12.7589C8.07385 13.5133 8.4707 14.2062 9.05343 14.7501C9.63616 15.2939 10.3786 15.6643 11.1869 15.8144C11.9952 15.9644 12.833 15.8874 13.5943 15.5931C14.3557 15.2987 15.0065 14.8003 15.4643 14.1608C15.9222 13.5212 16.1666 12.7694 16.1666 12.0002C16.1652 10.9692 15.7258 9.98076 14.9447 9.25172C14.1635 8.52268 13.1045 8.11256 11.9998 8.11133ZM11.9998 14.3336C11.5053 14.3336 11.022 14.1967 10.6108 13.9403C10.1997 13.6839 9.87925 13.3195 9.69002 12.8931C9.5008 12.4668 9.45129 11.9976 9.54776 11.545C9.64422 11.0924 9.88233 10.6766 10.232 10.3503C10.5816 10.024 11.0271 9.80175 11.512 9.71172C11.997 9.62169 12.4997 9.66789 12.9565 9.8445C13.4133 10.0211 13.8038 10.3202 14.0785 10.7039C14.3532 11.0876 14.4998 11.5387 14.4998 12.0002C14.4998 12.6191 14.2364 13.2125 13.7676 13.6501C13.2987 14.0877 12.6628 14.3336 11.9998 14.3336Z" fill="#666666"/>
</svg>
